<mxfile host="65bd71144e">
    <diagram name="Page-1" id="PiudxcxY21ZuL0DZgnnW">
        <mxGraphModel dx="1668" dy="1597" grid="1" gridSize="10" guides="1" tooltips="1" connect="1" arrows="1" fold="1" page="1" pageScale="1" pageWidth="850" pageHeight="1100" math="0" shadow="0">
            <root>
                <mxCell id="0"/>
                <mxCell id="1" parent="0"/>
                <mxCell id="1UJyBjq5cVFDZRbIYlk_-1" value="Admin" style="rounded=1;arcSize=10;whiteSpace=wrap;html=1;align=center;fillColor=#f8cecc;strokeColor=#b85450;" parent="1" vertex="1">
                    <mxGeometry x="-540" y="310" width="100" height="40" as="geometry"/>
                </mxCell>
                <mxCell id="1UJyBjq5cVFDZRbIYlk_-6" value="Member" style="rounded=1;arcSize=10;whiteSpace=wrap;html=1;align=center;fillColor=#f8cecc;strokeColor=#b85450;" parent="1" vertex="1">
                    <mxGeometry x="295" y="40" width="100" height="40" as="geometry"/>
                </mxCell>
                <mxCell id="1UJyBjq5cVFDZRbIYlk_-7" value="Trainer" style="rounded=1;arcSize=10;whiteSpace=wrap;html=1;align=center;fillColor=#f8cecc;strokeColor=#b85450;" parent="1" vertex="1">
                    <mxGeometry x="-240" y="660" width="100" height="40" as="geometry"/>
                </mxCell>
                <mxCell id="1UJyBjq5cVFDZRbIYlk_-8" value="Payment&lt;span style=&quot;color: rgba(0, 0, 0, 0); font-family: monospace; font-size: 0px; text-align: start; text-wrap: nowrap;&quot;&gt;%3CmxGraphModel%3E%3Croot%3E%3CmxCell%20id%3D%220%22%2F%3E%3CmxCell%20id%3D%221%22%20parent%3D%220%22%2F%3E%3CmxCell%20id%3D%222%22%20value%3D%22Member%22%20style%3D%22rounded%3D1%3BarcSize%3D10%3BwhiteSpace%3Dwrap%3Bhtml%3D1%3Balign%3Dcenter%3B%22%20vertex%3D%221%22%20parent%3D%221%22%3E%3CmxGeometry%20x%3D%22350%22%20y%3D%22200%22%20width%3D%22100%22%20height%3D%2240%22%20as%3D%22geometry%22%2F%3E%3C%2FmxCell%3E%3C%2Froot%3E%3C%2FmxGraphModel%3E&lt;/span&gt;" style="rounded=1;arcSize=10;whiteSpace=wrap;html=1;align=center;fillColor=#f8cecc;strokeColor=#b85450;" parent="1" vertex="1">
                    <mxGeometry x="-92.5" y="-120" width="100" height="40" as="geometry"/>
                </mxCell>
                <mxCell id="1UJyBjq5cVFDZRbIYlk_-9" value="Workout Plan" style="rounded=1;arcSize=10;whiteSpace=wrap;html=1;align=center;fillColor=#f8cecc;strokeColor=#b85450;" parent="1" vertex="1">
                    <mxGeometry x="570" y="540" width="100" height="40" as="geometry"/>
                </mxCell>
                <mxCell id="1UJyBjq5cVFDZRbIYlk_-10" value="Workout" style="rounded=1;arcSize=10;whiteSpace=wrap;html=1;align=center;fillColor=#f8cecc;strokeColor=#b85450;" parent="1" vertex="1">
                    <mxGeometry x="750" y="840" width="100" height="40" as="geometry"/>
                </mxCell>
                <mxCell id="1UJyBjq5cVFDZRbIYlk_-11" value="Membership Type" style="rounded=1;arcSize=10;whiteSpace=wrap;html=1;align=center;fillColor=#f8cecc;strokeColor=#b85450;" parent="1" vertex="1">
                    <mxGeometry x="650" y="-120" width="100" height="40" as="geometry"/>
                </mxCell>
                <mxCell id="1UJyBjq5cVFDZRbIYlk_-13" value="&lt;font color=&quot;#050505&quot;&gt;Equpiment&lt;/font&gt;" style="rounded=1;arcSize=10;whiteSpace=wrap;html=1;align=center;fillColor=#f8cecc;strokeColor=#b85450;" parent="1" vertex="1">
                    <mxGeometry x="-540" y="-150" width="100" height="40" as="geometry"/>
                </mxCell>
                <mxCell id="1UJyBjq5cVFDZRbIYlk_-14" value="Attendence" style="rounded=1;arcSize=10;whiteSpace=wrap;html=1;align=center;fillColor=#f8cecc;strokeColor=#b85450;" parent="1" vertex="1">
                    <mxGeometry x="760" y="100" width="100" height="40" as="geometry"/>
                </mxCell>
                <mxCell id="1UJyBjq5cVFDZRbIYlk_-15" value="Trainer Schedule" style="rounded=1;arcSize=10;whiteSpace=wrap;html=1;align=center;fillColor=#f8cecc;strokeColor=#b85450;" parent="1" vertex="1">
                    <mxGeometry x="-240" y="930" width="100" height="40" as="geometry"/>
                </mxCell>
                <mxCell id="v6D-0U67AB6QKfAhoeiV-9" value="belongs" style="rhombus;whiteSpace=wrap;html=1;fillColor=#dae8fc;strokeColor=#6c8ebf;" parent="1" vertex="1">
                    <mxGeometry x="610" y="30" width="80" height="80" as="geometry"/>
                </mxCell>
                <mxCell id="v6D-0U67AB6QKfAhoeiV-12" value="" style="endArrow=none;html=1;rounded=0;entryX=0.5;entryY=1;entryDx=0;entryDy=0;exitX=1;exitY=0.5;exitDx=0;exitDy=0;" parent="1" source="1UJyBjq5cVFDZRbIYlk_-6" target="v6D-0U67AB6QKfAhoeiV-9" edge="1">
                    <mxGeometry width="50" height="50" relative="1" as="geometry">
                        <mxPoint x="420" y="200" as="sourcePoint"/>
                        <mxPoint x="470" y="150" as="targetPoint"/>
                    </mxGeometry>
                </mxCell>
                <mxCell id="v6D-0U67AB6QKfAhoeiV-13" value="" style="endArrow=none;html=1;rounded=0;entryX=0.5;entryY=1;entryDx=0;entryDy=0;exitX=0.5;exitY=0;exitDx=0;exitDy=0;" parent="1" source="v6D-0U67AB6QKfAhoeiV-9" target="1UJyBjq5cVFDZRbIYlk_-11" edge="1">
                    <mxGeometry width="50" height="50" relative="1" as="geometry">
                        <mxPoint x="660" y="60" as="sourcePoint"/>
                        <mxPoint x="400" y="130" as="targetPoint"/>
                    </mxGeometry>
                </mxCell>
                <mxCell id="v6D-0U67AB6QKfAhoeiV-18" value="Follow" style="rhombus;whiteSpace=wrap;html=1;fillColor=#dae8fc;strokeColor=#6c8ebf;" parent="1" vertex="1">
                    <mxGeometry x="-230" y="780" width="80" height="80" as="geometry"/>
                </mxCell>
                <mxCell id="v6D-0U67AB6QKfAhoeiV-19" value="Makes" style="rhombus;whiteSpace=wrap;html=1;direction=west;fillColor=#dae8fc;strokeColor=#6c8ebf;rotation=-45;" parent="1" vertex="1">
                    <mxGeometry x="85" y="-30" width="80" height="80" as="geometry"/>
                </mxCell>
                <mxCell id="v6D-0U67AB6QKfAhoeiV-20" value="Enrolled" style="rhombus;whiteSpace=wrap;html=1;fillColor=#dae8fc;strokeColor=#6c8ebf;rotation=50;" parent="1" vertex="1">
                    <mxGeometry x="465" y="350" width="80" height="80" as="geometry"/>
                </mxCell>
                <mxCell id="v6D-0U67AB6QKfAhoeiV-21" value="Mark" style="rhombus;whiteSpace=wrap;html=1;fillColor=#dae8fc;strokeColor=#6c8ebf;" parent="1" vertex="1">
                    <mxGeometry x="610" y="150" width="80" height="80" as="geometry"/>
                </mxCell>
                <mxCell id="v6D-0U67AB6QKfAhoeiV-22" value="Has" style="rhombus;whiteSpace=wrap;html=1;fillColor=#dae8fc;strokeColor=#6c8ebf;" parent="1" vertex="1">
                    <mxGeometry x="760" y="640" width="80" height="80" as="geometry"/>
                </mxCell>
                <mxCell id="v6D-0U67AB6QKfAhoeiV-24" value="Process" style="rhombus;whiteSpace=wrap;html=1;direction=north;fillColor=#dae8fc;strokeColor=#6c8ebf;" parent="1" vertex="1">
                    <mxGeometry x="-240" y="120" width="80" height="80" as="geometry"/>
                </mxCell>
                <mxCell id="v6D-0U67AB6QKfAhoeiV-29" value="" style="endArrow=none;html=1;rounded=0;entryX=0.05;entryY=0.4;entryDx=0;entryDy=0;entryPerimeter=0;exitX=0.5;exitY=0;exitDx=0;exitDy=0;" parent="1" source="1UJyBjq5cVFDZRbIYlk_-1" target="v6D-0U67AB6QKfAhoeiV-24" edge="1">
                    <mxGeometry relative="1" as="geometry">
                        <mxPoint x="340" y="360" as="sourcePoint"/>
                        <mxPoint x="500" y="360" as="targetPoint"/>
                    </mxGeometry>
                </mxCell>
                <mxCell id="v6D-0U67AB6QKfAhoeiV-31" value="" style="endArrow=none;html=1;rounded=0;exitX=0.5;exitY=1;exitDx=0;exitDy=0;entryX=1;entryY=0.5;entryDx=0;entryDy=0;" parent="1" source="1UJyBjq5cVFDZRbIYlk_-8" target="v6D-0U67AB6QKfAhoeiV-24" edge="1">
                    <mxGeometry relative="1" as="geometry">
                        <mxPoint x="200" y="240" as="sourcePoint"/>
                        <mxPoint x="260" y="240" as="targetPoint"/>
                    </mxGeometry>
                </mxCell>
                <mxCell id="v6D-0U67AB6QKfAhoeiV-35" value="" style="endArrow=none;html=1;rounded=0;exitX=1;exitY=0.5;exitDx=0;exitDy=0;entryX=0;entryY=0.5;entryDx=0;entryDy=0;" parent="1" source="1UJyBjq5cVFDZRbIYlk_-6" target="v6D-0U67AB6QKfAhoeiV-20" edge="1">
                    <mxGeometry relative="1" as="geometry">
                        <mxPoint x="220" y="260" as="sourcePoint"/>
                        <mxPoint x="480" y="300" as="targetPoint"/>
                    </mxGeometry>
                </mxCell>
                <mxCell id="v6D-0U67AB6QKfAhoeiV-37" value="" style="endArrow=none;html=1;rounded=0;exitX=0;exitY=0.5;exitDx=0;exitDy=0;entryX=1;entryY=0.5;entryDx=0;entryDy=0;" parent="1" source="1UJyBjq5cVFDZRbIYlk_-9" target="v6D-0U67AB6QKfAhoeiV-20" edge="1">
                    <mxGeometry relative="1" as="geometry">
                        <mxPoint x="230" y="270" as="sourcePoint"/>
                        <mxPoint x="580" y="250" as="targetPoint"/>
                    </mxGeometry>
                </mxCell>
                <mxCell id="v6D-0U67AB6QKfAhoeiV-43" value="" style="endArrow=none;html=1;rounded=0;exitX=0.5;exitY=1;exitDx=0;exitDy=0;entryX=0.5;entryY=0;entryDx=0;entryDy=0;" parent="1" source="1UJyBjq5cVFDZRbIYlk_-9" target="v6D-0U67AB6QKfAhoeiV-22" edge="1">
                    <mxGeometry relative="1" as="geometry">
                        <mxPoint x="240" y="280" as="sourcePoint"/>
                        <mxPoint x="300" y="280" as="targetPoint"/>
                    </mxGeometry>
                </mxCell>
                <mxCell id="v6D-0U67AB6QKfAhoeiV-45" value="" style="endArrow=none;html=1;rounded=0;exitX=0.5;exitY=0;exitDx=0;exitDy=0;entryX=0.5;entryY=1;entryDx=0;entryDy=0;" parent="1" source="1UJyBjq5cVFDZRbIYlk_-10" target="v6D-0U67AB6QKfAhoeiV-22" edge="1">
                    <mxGeometry relative="1" as="geometry">
                        <mxPoint x="250" y="290" as="sourcePoint"/>
                        <mxPoint x="310" y="290" as="targetPoint"/>
                    </mxGeometry>
                </mxCell>
                <mxCell id="v6D-0U67AB6QKfAhoeiV-47" value="" style="endArrow=none;html=1;rounded=0;exitX=0;exitY=0.5;exitDx=0;exitDy=0;entryX=0.5;entryY=0;entryDx=0;entryDy=0;" parent="1" source="1UJyBjq5cVFDZRbIYlk_-6" target="v6D-0U67AB6QKfAhoeiV-19" edge="1">
                    <mxGeometry relative="1" as="geometry">
                        <mxPoint x="260" y="300" as="sourcePoint"/>
                        <mxPoint x="320" y="300" as="targetPoint"/>
                    </mxGeometry>
                </mxCell>
                <mxCell id="v6D-0U67AB6QKfAhoeiV-49" value="" style="endArrow=none;html=1;rounded=0;entryX=0.5;entryY=1;entryDx=0;entryDy=0;exitX=0.5;exitY=1;exitDx=0;exitDy=0;" parent="1" source="1UJyBjq5cVFDZRbIYlk_-8" target="v6D-0U67AB6QKfAhoeiV-19" edge="1">
                    <mxGeometry relative="1" as="geometry">
                        <mxPoint x="50" y="10" as="sourcePoint"/>
                        <mxPoint x="330" y="310" as="targetPoint"/>
                    </mxGeometry>
                </mxCell>
                <mxCell id="v6D-0U67AB6QKfAhoeiV-51" value="" style="endArrow=none;html=1;rounded=0;exitX=1;exitY=0.5;exitDx=0;exitDy=0;entryX=0.5;entryY=1;entryDx=0;entryDy=0;" parent="1" source="1UJyBjq5cVFDZRbIYlk_-6" target="v6D-0U67AB6QKfAhoeiV-21" edge="1">
                    <mxGeometry relative="1" as="geometry">
                        <mxPoint x="280" y="320" as="sourcePoint"/>
                        <mxPoint x="340" y="320" as="targetPoint"/>
                    </mxGeometry>
                </mxCell>
                <mxCell id="v6D-0U67AB6QKfAhoeiV-53" value="" style="endArrow=none;html=1;rounded=0;exitX=0;exitY=1;exitDx=0;exitDy=0;entryX=0.5;entryY=0;entryDx=0;entryDy=0;" parent="1" source="1UJyBjq5cVFDZRbIYlk_-14" target="v6D-0U67AB6QKfAhoeiV-21" edge="1">
                    <mxGeometry relative="1" as="geometry">
                        <mxPoint x="290" y="330" as="sourcePoint"/>
                        <mxPoint x="350" y="330" as="targetPoint"/>
                    </mxGeometry>
                </mxCell>
                <mxCell id="v6D-0U67AB6QKfAhoeiV-65" value="" style="endArrow=none;html=1;rounded=0;exitX=0.5;exitY=0;exitDx=0;exitDy=0;entryX=0.5;entryY=1;entryDx=0;entryDy=0;" parent="1" source="v6D-0U67AB6QKfAhoeiV-18" target="1UJyBjq5cVFDZRbIYlk_-7" edge="1">
                    <mxGeometry relative="1" as="geometry">
                        <mxPoint x="30" y="370" as="sourcePoint"/>
                        <mxPoint x="190" y="370" as="targetPoint"/>
                    </mxGeometry>
                </mxCell>
                <mxCell id="v6D-0U67AB6QKfAhoeiV-66" value="" style="endArrow=none;html=1;rounded=0;exitX=0.5;exitY=0;exitDx=0;exitDy=0;entryX=0.5;entryY=1;entryDx=0;entryDy=0;" parent="1" source="1UJyBjq5cVFDZRbIYlk_-15" target="v6D-0U67AB6QKfAhoeiV-18" edge="1">
                    <mxGeometry relative="1" as="geometry">
                        <mxPoint x="40" y="380" as="sourcePoint"/>
                        <mxPoint x="200" y="380" as="targetPoint"/>
                    </mxGeometry>
                </mxCell>
                <mxCell id="v6D-0U67AB6QKfAhoeiV-68" value="Manages" style="rhombus;whiteSpace=wrap;html=1;fillColor=#dae8fc;strokeColor=#6c8ebf;rotation=0;" parent="1" vertex="1">
                    <mxGeometry x="-540" y="29.999999999999993" width="80" height="80" as="geometry"/>
                </mxCell>
                <mxCell id="v6D-0U67AB6QKfAhoeiV-69" value="" style="endArrow=none;html=1;rounded=0;exitX=0.5;exitY=1;exitDx=0;exitDy=0;entryX=0.5;entryY=0;entryDx=0;entryDy=0;" parent="1" source="1UJyBjq5cVFDZRbIYlk_-13" target="v6D-0U67AB6QKfAhoeiV-68" edge="1">
                    <mxGeometry relative="1" as="geometry">
                        <mxPoint x="-80" y="-120" as="sourcePoint"/>
                        <mxPoint x="-360" y="8.519999999999982" as="targetPoint"/>
                    </mxGeometry>
                </mxCell>
                <mxCell id="v6D-0U67AB6QKfAhoeiV-70" value="" style="endArrow=none;html=1;rounded=0;entryX=0.5;entryY=1;entryDx=0;entryDy=0;exitX=0.5;exitY=0;exitDx=0;exitDy=0;" parent="1" source="1UJyBjq5cVFDZRbIYlk_-1" target="v6D-0U67AB6QKfAhoeiV-68" edge="1">
                    <mxGeometry relative="1" as="geometry">
                        <mxPoint x="100" y="250" as="sourcePoint"/>
                        <mxPoint x="150" y="70" as="targetPoint"/>
                    </mxGeometry>
                </mxCell>
                <mxCell id="v6D-0U67AB6QKfAhoeiV-71" value="Assigned" style="rhombus;whiteSpace=wrap;html=1;fillColor=#dae8fc;strokeColor=#6c8ebf;rotation=-30;direction=south;" parent="1" vertex="1">
                    <mxGeometry x="70" y="321.48" width="80" height="80" as="geometry"/>
                </mxCell>
                <mxCell id="v6D-0U67AB6QKfAhoeiV-72" value="" style="endArrow=none;html=1;rounded=0;exitX=0;exitY=0.5;exitDx=0;exitDy=0;entryX=0.5;entryY=0;entryDx=0;entryDy=0;" parent="1" source="1UJyBjq5cVFDZRbIYlk_-6" target="v6D-0U67AB6QKfAhoeiV-71" edge="1">
                    <mxGeometry relative="1" as="geometry">
                        <mxPoint x="210" y="260" as="sourcePoint"/>
                        <mxPoint x="270" y="370" as="targetPoint"/>
                    </mxGeometry>
                </mxCell>
                <mxCell id="v6D-0U67AB6QKfAhoeiV-73" value="" style="endArrow=none;html=1;rounded=0;exitX=1;exitY=0;exitDx=0;exitDy=0;entryX=0.5;entryY=1;entryDx=0;entryDy=0;" parent="1" source="1UJyBjq5cVFDZRbIYlk_-7" target="v6D-0U67AB6QKfAhoeiV-71" edge="1">
                    <mxGeometry relative="1" as="geometry">
                        <mxPoint x="230" y="560" as="sourcePoint"/>
                        <mxPoint x="280" y="380" as="targetPoint"/>
                    </mxGeometry>
                </mxCell>
                <mxCell id="v6D-0U67AB6QKfAhoeiV-76" value="Design" style="rhombus;whiteSpace=wrap;html=1;fillColor=#dae8fc;strokeColor=#6c8ebf;rotation=0;direction=south;" parent="1" vertex="1">
                    <mxGeometry x="395" y="740" width="80" height="80" as="geometry"/>
                </mxCell>
                <mxCell id="v6D-0U67AB6QKfAhoeiV-77" value="" style="endArrow=none;html=1;rounded=0;exitX=0.25;exitY=1;exitDx=0;exitDy=0;entryX=0.5;entryY=0;entryDx=0;entryDy=0;" parent="1" source="1UJyBjq5cVFDZRbIYlk_-9" target="v6D-0U67AB6QKfAhoeiV-76" edge="1">
                    <mxGeometry relative="1" as="geometry">
                        <mxPoint x="500" y="270" as="sourcePoint"/>
                        <mxPoint x="400" y="400" as="targetPoint"/>
                    </mxGeometry>
                </mxCell>
                <mxCell id="v6D-0U67AB6QKfAhoeiV-78" value="" style="endArrow=none;html=1;rounded=0;exitX=1;exitY=0.25;exitDx=0;exitDy=0;entryX=0.5;entryY=1;entryDx=0;entryDy=0;" parent="1" source="1UJyBjq5cVFDZRbIYlk_-7" target="v6D-0U67AB6QKfAhoeiV-76" edge="1">
                    <mxGeometry relative="1" as="geometry">
                        <mxPoint x="310" y="570" as="sourcePoint"/>
                        <mxPoint x="410" y="410" as="targetPoint"/>
                    </mxGeometry>
                </mxCell>
                <mxCell id="F13kggWCqsYXxIl8s9uE-4" value="Admin_ID" style="ellipse;whiteSpace=wrap;html=1;align=center;fontStyle=4" parent="1" vertex="1">
                    <mxGeometry x="-675" y="261.48" width="100" height="40" as="geometry"/>
                </mxCell>
                <mxCell id="F13kggWCqsYXxIl8s9uE-5" value="" style="endArrow=none;html=1;rounded=0;exitX=1;exitY=0.5;exitDx=0;exitDy=0;entryX=0;entryY=1;entryDx=0;entryDy=0;" parent="1" source="F13kggWCqsYXxIl8s9uE-4" target="1UJyBjq5cVFDZRbIYlk_-1" edge="1">
                    <mxGeometry width="50" height="50" relative="1" as="geometry">
                        <mxPoint x="-275" y="231.48" as="sourcePoint"/>
                        <mxPoint x="-445" y="251.48" as="targetPoint"/>
                    </mxGeometry>
                </mxCell>
                <mxCell id="F13kggWCqsYXxIl8s9uE-6" value="Name" style="ellipse;whiteSpace=wrap;html=1;align=center;" parent="1" vertex="1">
                    <mxGeometry x="-675" y="301.48" width="100" height="40" as="geometry"/>
                </mxCell>
                <mxCell id="F13kggWCqsYXxIl8s9uE-7" value="" style="endArrow=none;html=1;rounded=0;exitX=1;exitY=0.5;exitDx=0;exitDy=0;entryX=0;entryY=1;entryDx=0;entryDy=0;" parent="1" source="F13kggWCqsYXxIl8s9uE-6" target="1UJyBjq5cVFDZRbIYlk_-1" edge="1">
                    <mxGeometry width="50" height="50" relative="1" as="geometry">
                        <mxPoint x="-265" y="291.48" as="sourcePoint"/>
                        <mxPoint x="-435" y="311.48" as="targetPoint"/>
                    </mxGeometry>
                </mxCell>
                <mxCell id="F13kggWCqsYXxIl8s9uE-8" value="Email" style="ellipse;whiteSpace=wrap;html=1;align=center;" parent="1" vertex="1">
                    <mxGeometry x="-675" y="341.48" width="100" height="40" as="geometry"/>
                </mxCell>
                <mxCell id="F13kggWCqsYXxIl8s9uE-9" value="" style="endArrow=none;html=1;rounded=0;exitX=1;exitY=0.5;exitDx=0;exitDy=0;entryX=0;entryY=1;entryDx=0;entryDy=0;" parent="1" source="F13kggWCqsYXxIl8s9uE-8" target="1UJyBjq5cVFDZRbIYlk_-1" edge="1">
                    <mxGeometry width="50" height="50" relative="1" as="geometry">
                        <mxPoint x="-265" y="371.48" as="sourcePoint"/>
                        <mxPoint x="-435" y="391.48" as="targetPoint"/>
                    </mxGeometry>
                </mxCell>
                <mxCell id="F13kggWCqsYXxIl8s9uE-10" value="Phone" style="ellipse;whiteSpace=wrap;html=1;align=center;" parent="1" vertex="1">
                    <mxGeometry x="-675" y="381.48" width="100" height="40" as="geometry"/>
                </mxCell>
                <mxCell id="F13kggWCqsYXxIl8s9uE-11" value="" style="endArrow=none;html=1;rounded=0;exitX=1;exitY=0.5;exitDx=0;exitDy=0;entryX=0;entryY=1;entryDx=0;entryDy=0;" parent="1" source="F13kggWCqsYXxIl8s9uE-10" target="1UJyBjq5cVFDZRbIYlk_-1" edge="1">
                    <mxGeometry width="50" height="50" relative="1" as="geometry">
                        <mxPoint x="-265" y="431.48" as="sourcePoint"/>
                        <mxPoint x="-435" y="451.48" as="targetPoint"/>
                    </mxGeometry>
                </mxCell>
                <mxCell id="F13kggWCqsYXxIl8s9uE-12" value="Role" style="ellipse;whiteSpace=wrap;html=1;align=center;" parent="1" vertex="1">
                    <mxGeometry x="-675" y="420" width="100" height="40" as="geometry"/>
                </mxCell>
                <mxCell id="F13kggWCqsYXxIl8s9uE-13" value="" style="endArrow=none;html=1;rounded=0;exitX=1;exitY=0.5;exitDx=0;exitDy=0;entryX=0;entryY=1;entryDx=0;entryDy=0;" parent="1" source="F13kggWCqsYXxIl8s9uE-12" target="1UJyBjq5cVFDZRbIYlk_-1" edge="1">
                    <mxGeometry width="50" height="50" relative="1" as="geometry">
                        <mxPoint x="-275" y="501.48" as="sourcePoint"/>
                        <mxPoint x="-445" y="521.48" as="targetPoint"/>
                    </mxGeometry>
                </mxCell>
                <mxCell id="F13kggWCqsYXxIl8s9uE-14" value="Date" style="ellipse;whiteSpace=wrap;html=1;align=center;fontStyle=4" parent="1" vertex="1">
                    <mxGeometry x="-755" y="-360" width="150" height="50" as="geometry"/>
                </mxCell>
                <mxCell id="F13kggWCqsYXxIl8s9uE-15" value="" style="endArrow=none;html=1;rounded=0;exitX=1;exitY=0.5;exitDx=0;exitDy=0;entryX=0;entryY=0.5;entryDx=0;entryDy=0;" parent="1" source="F13kggWCqsYXxIl8s9uE-14" target="a_a00b4-tUk0evwlxTbd-73" edge="1">
                    <mxGeometry width="50" height="50" relative="1" as="geometry">
                        <mxPoint x="-390" y="-210" as="sourcePoint"/>
                        <mxPoint x="-600" y="-100" as="targetPoint"/>
                    </mxGeometry>
                </mxCell>
                <mxCell id="F13kggWCqsYXxIl8s9uE-16" value="Purchase_Date" style="ellipse;whiteSpace=wrap;html=1;align=center;" parent="1" vertex="1">
                    <mxGeometry x="-730" y="-150" width="100" height="40" as="geometry"/>
                </mxCell>
                <mxCell id="F13kggWCqsYXxIl8s9uE-17" value="" style="endArrow=none;html=1;rounded=0;exitX=1;exitY=0.5;exitDx=0;exitDy=0;entryX=0;entryY=0.5;entryDx=0;entryDy=0;" parent="1" source="F13kggWCqsYXxIl8s9uE-16" target="1UJyBjq5cVFDZRbIYlk_-13" edge="1">
                    <mxGeometry width="50" height="50" relative="1" as="geometry">
                        <mxPoint x="-380" y="-200" as="sourcePoint"/>
                        <mxPoint x="-560" y="-110" as="targetPoint"/>
                    </mxGeometry>
                </mxCell>
                <mxCell id="F13kggWCqsYXxIl8s9uE-18" value="Equipment ID" style="ellipse;whiteSpace=wrap;html=1;align=center;fontStyle=4" parent="1" vertex="1">
                    <mxGeometry x="-730" y="-190" width="100" height="40" as="geometry"/>
                </mxCell>
                <mxCell id="F13kggWCqsYXxIl8s9uE-19" value="" style="endArrow=none;html=1;rounded=0;exitX=1;exitY=0.5;exitDx=0;exitDy=0;entryX=0;entryY=0.5;entryDx=0;entryDy=0;" parent="1" source="F13kggWCqsYXxIl8s9uE-18" target="1UJyBjq5cVFDZRbIYlk_-13" edge="1">
                    <mxGeometry width="50" height="50" relative="1" as="geometry">
                        <mxPoint x="-370" y="-190" as="sourcePoint"/>
                        <mxPoint x="-600" y="-100" as="targetPoint"/>
                    </mxGeometry>
                </mxCell>
                <mxCell id="F13kggWCqsYXxIl8s9uE-20" value="Name" style="ellipse;whiteSpace=wrap;html=1;align=center;" parent="1" vertex="1">
                    <mxGeometry x="-730" y="-70" width="100" height="40" as="geometry"/>
                </mxCell>
                <mxCell id="F13kggWCqsYXxIl8s9uE-21" value="" style="endArrow=none;html=1;rounded=0;exitX=1;exitY=0.5;exitDx=0;exitDy=0;entryX=0;entryY=0.5;entryDx=0;entryDy=0;" parent="1" source="F13kggWCqsYXxIl8s9uE-20" target="1UJyBjq5cVFDZRbIYlk_-13" edge="1">
                    <mxGeometry width="50" height="50" relative="1" as="geometry">
                        <mxPoint x="-370" y="-120" as="sourcePoint"/>
                        <mxPoint x="-560" y="-110" as="targetPoint"/>
                    </mxGeometry>
                </mxCell>
                <mxCell id="F13kggWCqsYXxIl8s9uE-22" value="Condition" style="ellipse;whiteSpace=wrap;html=1;align=center;" parent="1" vertex="1">
                    <mxGeometry x="-730" y="-110" width="100" height="40" as="geometry"/>
                </mxCell>
                <mxCell id="F13kggWCqsYXxIl8s9uE-23" value="" style="endArrow=none;html=1;rounded=0;exitX=1;exitY=0.5;exitDx=0;exitDy=0;entryX=0;entryY=0.5;entryDx=0;entryDy=0;" parent="1" source="F13kggWCqsYXxIl8s9uE-22" target="1UJyBjq5cVFDZRbIYlk_-13" edge="1">
                    <mxGeometry width="50" height="50" relative="1" as="geometry">
                        <mxPoint x="-360" y="-110" as="sourcePoint"/>
                        <mxPoint x="-600" y="-100" as="targetPoint"/>
                    </mxGeometry>
                </mxCell>
                <mxCell id="F13kggWCqsYXxIl8s9uE-24" value="Trainer_ID" style="ellipse;whiteSpace=wrap;html=1;align=center;fontStyle=4" parent="1" vertex="1">
                    <mxGeometry x="-425" y="570" width="100" height="40" as="geometry"/>
                </mxCell>
                <mxCell id="F13kggWCqsYXxIl8s9uE-25" value="" style="endArrow=none;html=1;rounded=0;exitX=1;exitY=0.5;exitDx=0;exitDy=0;entryX=0;entryY=0.5;entryDx=0;entryDy=0;" parent="1" source="F13kggWCqsYXxIl8s9uE-24" target="1UJyBjq5cVFDZRbIYlk_-7" edge="1">
                    <mxGeometry width="50" height="50" relative="1" as="geometry">
                        <mxPoint x="-100" y="660" as="sourcePoint"/>
                        <mxPoint x="-210" y="530" as="targetPoint"/>
                    </mxGeometry>
                </mxCell>
                <mxCell id="F13kggWCqsYXxIl8s9uE-26" value="Name" style="ellipse;whiteSpace=wrap;html=1;align=center;" parent="1" vertex="1">
                    <mxGeometry x="-427.5" y="620" width="100" height="40" as="geometry"/>
                </mxCell>
                <mxCell id="F13kggWCqsYXxIl8s9uE-27" value="" style="endArrow=none;html=1;rounded=0;exitX=1;exitY=0.5;exitDx=0;exitDy=0;entryX=0;entryY=0.5;entryDx=0;entryDy=0;" parent="1" source="F13kggWCqsYXxIl8s9uE-26" target="1UJyBjq5cVFDZRbIYlk_-7" edge="1">
                    <mxGeometry width="50" height="50" relative="1" as="geometry">
                        <mxPoint x="-90" y="670" as="sourcePoint"/>
                        <mxPoint x="-230" y="690" as="targetPoint"/>
                    </mxGeometry>
                </mxCell>
                <mxCell id="F13kggWCqsYXxIl8s9uE-28" value="Speciality" style="ellipse;whiteSpace=wrap;html=1;align=center;" parent="1" vertex="1">
                    <mxGeometry x="-435" y="670" width="100" height="40" as="geometry"/>
                </mxCell>
                <mxCell id="F13kggWCqsYXxIl8s9uE-29" value="" style="endArrow=none;html=1;rounded=0;exitX=1;exitY=0.5;exitDx=0;exitDy=0;entryX=0;entryY=0.5;entryDx=0;entryDy=0;" parent="1" source="F13kggWCqsYXxIl8s9uE-28" target="1UJyBjq5cVFDZRbIYlk_-7" edge="1">
                    <mxGeometry width="50" height="50" relative="1" as="geometry">
                        <mxPoint x="-80" y="680" as="sourcePoint"/>
                        <mxPoint x="-220" y="700" as="targetPoint"/>
                    </mxGeometry>
                </mxCell>
                <mxCell id="F13kggWCqsYXxIl8s9uE-30" value="Email" style="ellipse;whiteSpace=wrap;html=1;align=center;" parent="1" vertex="1">
                    <mxGeometry x="-395" y="740" width="100" height="40" as="geometry"/>
                </mxCell>
                <mxCell id="F13kggWCqsYXxIl8s9uE-31" value="" style="endArrow=none;html=1;rounded=0;exitX=1;exitY=0.5;exitDx=0;exitDy=0;" parent="1" source="F13kggWCqsYXxIl8s9uE-30" edge="1">
                    <mxGeometry width="50" height="50" relative="1" as="geometry">
                        <mxPoint x="-110" y="770" as="sourcePoint"/>
                        <mxPoint x="-240" y="680" as="targetPoint"/>
                    </mxGeometry>
                </mxCell>
                <mxCell id="F13kggWCqsYXxIl8s9uE-32" value="Salary" style="ellipse;whiteSpace=wrap;html=1;align=center;" parent="1" vertex="1">
                    <mxGeometry x="-395" y="780" width="100" height="40" as="geometry"/>
                </mxCell>
                <mxCell id="F13kggWCqsYXxIl8s9uE-33" value="" style="endArrow=none;html=1;rounded=0;exitX=1;exitY=0.5;exitDx=0;exitDy=0;entryX=0;entryY=0.5;entryDx=0;entryDy=0;" parent="1" source="F13kggWCqsYXxIl8s9uE-32" target="1UJyBjq5cVFDZRbIYlk_-7" edge="1">
                    <mxGeometry width="50" height="50" relative="1" as="geometry">
                        <mxPoint x="-120" y="840" as="sourcePoint"/>
                        <mxPoint x="-260" y="860" as="targetPoint"/>
                    </mxGeometry>
                </mxCell>
                <mxCell id="F13kggWCqsYXxIl8s9uE-34" value="Schedule_ID" style="ellipse;whiteSpace=wrap;html=1;align=center;fontStyle=4" parent="1" vertex="1">
                    <mxGeometry x="-420" y="880" width="100" height="40" as="geometry"/>
                </mxCell>
                <mxCell id="F13kggWCqsYXxIl8s9uE-35" value="" style="endArrow=none;html=1;rounded=0;exitX=1;exitY=0.5;exitDx=0;exitDy=0;entryX=0;entryY=0.5;entryDx=0;entryDy=0;" parent="1" source="F13kggWCqsYXxIl8s9uE-34" edge="1">
                    <mxGeometry width="50" height="50" relative="1" as="geometry">
                        <mxPoint x="-100" y="930" as="sourcePoint"/>
                        <mxPoint x="-240" y="950" as="targetPoint"/>
                    </mxGeometry>
                </mxCell>
                <mxCell id="F13kggWCqsYXxIl8s9uE-38" value="Start Time" style="ellipse;whiteSpace=wrap;html=1;align=center;" parent="1" vertex="1">
                    <mxGeometry x="-425" y="940" width="100" height="40" as="geometry"/>
                </mxCell>
                <mxCell id="F13kggWCqsYXxIl8s9uE-39" value="" style="endArrow=none;html=1;rounded=0;exitX=1;exitY=0.5;exitDx=0;exitDy=0;" parent="1" source="F13kggWCqsYXxIl8s9uE-38" edge="1">
                    <mxGeometry width="50" height="50" relative="1" as="geometry">
                        <mxPoint x="-80" y="950" as="sourcePoint"/>
                        <mxPoint x="-240" y="950" as="targetPoint"/>
                    </mxGeometry>
                </mxCell>
                <mxCell id="F13kggWCqsYXxIl8s9uE-40" value="End Tme" style="ellipse;whiteSpace=wrap;html=1;align=center;" parent="1" vertex="1">
                    <mxGeometry x="-400" y="1010" width="100" height="40" as="geometry"/>
                </mxCell>
                <mxCell id="F13kggWCqsYXxIl8s9uE-41" value="" style="endArrow=none;html=1;rounded=0;exitX=1;exitY=0.5;exitDx=0;exitDy=0;entryX=0;entryY=0.5;entryDx=0;entryDy=0;" parent="1" source="F13kggWCqsYXxIl8s9uE-40" target="1UJyBjq5cVFDZRbIYlk_-15" edge="1">
                    <mxGeometry width="50" height="50" relative="1" as="geometry">
                        <mxPoint x="-70" y="960" as="sourcePoint"/>
                        <mxPoint x="-210" y="980" as="targetPoint"/>
                    </mxGeometry>
                </mxCell>
                <mxCell id="F13kggWCqsYXxIl8s9uE-42" value="Date" style="ellipse;whiteSpace=wrap;html=1;align=center;" parent="1" vertex="1">
                    <mxGeometry x="-395" y="1060" width="100" height="40" as="geometry"/>
                </mxCell>
                <mxCell id="F13kggWCqsYXxIl8s9uE-43" value="" style="endArrow=none;html=1;rounded=0;exitX=1;exitY=0.5;exitDx=0;exitDy=0;entryX=0;entryY=0.5;entryDx=0;entryDy=0;" parent="1" source="F13kggWCqsYXxIl8s9uE-42" target="1UJyBjq5cVFDZRbIYlk_-15" edge="1">
                    <mxGeometry width="50" height="50" relative="1" as="geometry">
                        <mxPoint x="-100" y="1020" as="sourcePoint"/>
                        <mxPoint x="-240" y="1040" as="targetPoint"/>
                    </mxGeometry>
                </mxCell>
                <mxCell id="F13kggWCqsYXxIl8s9uE-66" value="Workout_ID" style="ellipse;whiteSpace=wrap;html=1;align=center;" parent="1" vertex="1">
                    <mxGeometry x="520" y="910" width="100" height="40" as="geometry"/>
                </mxCell>
                <mxCell id="F13kggWCqsYXxIl8s9uE-67" value="" style="endArrow=none;html=1;rounded=0;exitX=1;exitY=0.5;exitDx=0;exitDy=0;entryX=0.5;entryY=1;entryDx=0;entryDy=0;" parent="1" source="F13kggWCqsYXxIl8s9uE-66" target="1UJyBjq5cVFDZRbIYlk_-10" edge="1">
                    <mxGeometry width="50" height="50" relative="1" as="geometry">
                        <mxPoint x="900" y="880" as="sourcePoint"/>
                        <mxPoint x="740" y="880" as="targetPoint"/>
                    </mxGeometry>
                </mxCell>
                <mxCell id="F13kggWCqsYXxIl8s9uE-68" value="Name" style="ellipse;whiteSpace=wrap;html=1;align=center;" parent="1" vertex="1">
                    <mxGeometry x="520" y="970" width="100" height="40" as="geometry"/>
                </mxCell>
                <mxCell id="F13kggWCqsYXxIl8s9uE-69" value="" style="endArrow=none;html=1;rounded=0;exitX=1;exitY=0.5;exitDx=0;exitDy=0;entryX=0.5;entryY=1;entryDx=0;entryDy=0;" parent="1" source="F13kggWCqsYXxIl8s9uE-68" target="1UJyBjq5cVFDZRbIYlk_-10" edge="1">
                    <mxGeometry width="50" height="50" relative="1" as="geometry">
                        <mxPoint x="910" y="890" as="sourcePoint"/>
                        <mxPoint x="740" y="880" as="targetPoint"/>
                    </mxGeometry>
                </mxCell>
                <mxCell id="F13kggWCqsYXxIl8s9uE-70" value="Reps" style="ellipse;whiteSpace=wrap;html=1;align=center;" parent="1" vertex="1">
                    <mxGeometry x="650" y="990" width="100" height="40" as="geometry"/>
                </mxCell>
                <mxCell id="F13kggWCqsYXxIl8s9uE-71" value="" style="endArrow=none;html=1;rounded=0;exitX=1;exitY=0.5;exitDx=0;exitDy=0;entryX=0.5;entryY=1;entryDx=0;entryDy=0;" parent="1" source="F13kggWCqsYXxIl8s9uE-70" target="1UJyBjq5cVFDZRbIYlk_-10" edge="1">
                    <mxGeometry width="50" height="50" relative="1" as="geometry">
                        <mxPoint x="880" y="950" as="sourcePoint"/>
                        <mxPoint x="740" y="880" as="targetPoint"/>
                        <Array as="points"/>
                    </mxGeometry>
                </mxCell>
                <mxCell id="F13kggWCqsYXxIl8s9uE-72" value="Duration" style="ellipse;whiteSpace=wrap;html=1;align=center;direction=west;" parent="1" vertex="1">
                    <mxGeometry x="820" y="980" width="100" height="40" as="geometry"/>
                </mxCell>
                <mxCell id="F13kggWCqsYXxIl8s9uE-73" value="" style="endArrow=none;html=1;rounded=0;exitX=1;exitY=0.5;exitDx=0;exitDy=0;entryX=0.5;entryY=1;entryDx=0;entryDy=0;" parent="1" source="F13kggWCqsYXxIl8s9uE-72" target="1UJyBjq5cVFDZRbIYlk_-10" edge="1">
                    <mxGeometry width="50" height="50" relative="1" as="geometry">
                        <mxPoint x="1100" y="950" as="sourcePoint"/>
                        <mxPoint x="940" y="950" as="targetPoint"/>
                    </mxGeometry>
                </mxCell>
                <mxCell id="F13kggWCqsYXxIl8s9uE-74" value="Rest_Period" style="ellipse;whiteSpace=wrap;html=1;align=center;direction=west;" parent="1" vertex="1">
                    <mxGeometry x="920" y="930" width="100" height="40" as="geometry"/>
                </mxCell>
                <mxCell id="F13kggWCqsYXxIl8s9uE-75" value="" style="endArrow=none;html=1;rounded=0;exitX=1;exitY=0.5;exitDx=0;exitDy=0;entryX=0.5;entryY=1;entryDx=0;entryDy=0;" parent="1" source="F13kggWCqsYXxIl8s9uE-74" target="1UJyBjq5cVFDZRbIYlk_-10" edge="1">
                    <mxGeometry width="50" height="50" relative="1" as="geometry">
                        <mxPoint x="1110" y="960" as="sourcePoint"/>
                        <mxPoint x="940" y="950" as="targetPoint"/>
                    </mxGeometry>
                </mxCell>
                <mxCell id="F13kggWCqsYXxIl8s9uE-78" value="Trainer_ID" style="ellipse;whiteSpace=wrap;html=1;align=center;fontStyle=4" parent="1" vertex="1">
                    <mxGeometry x="410" y="890" width="100" height="40" as="geometry"/>
                </mxCell>
                <mxCell id="F13kggWCqsYXxIl8s9uE-79" value="" style="endArrow=none;html=1;rounded=0;exitX=0.5;exitY=0;exitDx=0;exitDy=0;entryX=0.42;entryY=-0.037;entryDx=0;entryDy=0;entryPerimeter=0;" parent="1" source="v6D-0U67AB6QKfAhoeiV-76" target="F13kggWCqsYXxIl8s9uE-78" edge="1">
                    <mxGeometry width="50" height="50" relative="1" as="geometry">
                        <mxPoint x="107.5" y="1051.48" as="sourcePoint"/>
                        <mxPoint x="592.5" y="812.96" as="targetPoint"/>
                    </mxGeometry>
                </mxCell>
                <mxCell id="F13kggWCqsYXxIl8s9uE-84" value="WorkoutPlan_ID" style="ellipse;whiteSpace=wrap;html=1;align=center;fontStyle=4" parent="1" vertex="1">
                    <mxGeometry x="790" y="450" width="100" height="40" as="geometry"/>
                </mxCell>
                <mxCell id="F13kggWCqsYXxIl8s9uE-85" value="" style="endArrow=none;html=1;rounded=0;exitX=1;exitY=0.5;exitDx=0;exitDy=0;entryX=0;entryY=0.5;entryDx=0;entryDy=0;" parent="1" source="1UJyBjq5cVFDZRbIYlk_-9" target="F13kggWCqsYXxIl8s9uE-84" edge="1">
                    <mxGeometry width="50" height="50" relative="1" as="geometry">
                        <mxPoint x="950" y="370" as="sourcePoint"/>
                        <mxPoint x="1060" y="430" as="targetPoint"/>
                        <Array as="points"/>
                    </mxGeometry>
                </mxCell>
                <mxCell id="F13kggWCqsYXxIl8s9uE-86" value="Attendance_ID" style="ellipse;whiteSpace=wrap;html=1;align=center;fontStyle=4" parent="1" vertex="1">
                    <mxGeometry x="1040" y="150" width="100" height="40" as="geometry"/>
                </mxCell>
                <mxCell id="F13kggWCqsYXxIl8s9uE-87" value="" style="endArrow=none;html=1;rounded=0;entryX=0.42;entryY=-0.037;entryDx=0;entryDy=0;entryPerimeter=0;exitX=1;exitY=0.5;exitDx=0;exitDy=0;" parent="1" source="1UJyBjq5cVFDZRbIYlk_-14" target="F13kggWCqsYXxIl8s9uE-86" edge="1">
                    <mxGeometry width="50" height="50" relative="1" as="geometry">
                        <mxPoint x="900" y="160" as="sourcePoint"/>
                        <mxPoint x="980" y="191.48000000000002" as="targetPoint"/>
                    </mxGeometry>
                </mxCell>
                <mxCell id="F13kggWCqsYXxIl8s9uE-90" value="Date" style="ellipse;whiteSpace=wrap;html=1;align=center;" parent="1" vertex="1">
                    <mxGeometry x="1090" y="220" width="100" height="40" as="geometry"/>
                </mxCell>
                <mxCell id="F13kggWCqsYXxIl8s9uE-91" value="" style="endArrow=none;html=1;rounded=0;entryX=0.42;entryY=-0.037;entryDx=0;entryDy=0;entryPerimeter=0;exitX=1;exitY=0.5;exitDx=0;exitDy=0;" parent="1" source="1UJyBjq5cVFDZRbIYlk_-14" target="F13kggWCqsYXxIl8s9uE-90" edge="1">
                    <mxGeometry width="50" height="50" relative="1" as="geometry">
                        <mxPoint x="870" y="130" as="sourcePoint"/>
                        <mxPoint x="990" y="201.48000000000002" as="targetPoint"/>
                    </mxGeometry>
                </mxCell>
                <mxCell id="F13kggWCqsYXxIl8s9uE-94" value="Check_Out_Time" style="ellipse;whiteSpace=wrap;html=1;align=center;" parent="1" vertex="1">
                    <mxGeometry x="1010" y="250" width="100" height="40" as="geometry"/>
                </mxCell>
                <mxCell id="F13kggWCqsYXxIl8s9uE-95" value="" style="endArrow=none;html=1;rounded=0;entryX=0.42;entryY=-0.037;entryDx=0;entryDy=0;entryPerimeter=0;" parent="1" target="F13kggWCqsYXxIl8s9uE-94" edge="1">
                    <mxGeometry width="50" height="50" relative="1" as="geometry">
                        <mxPoint x="860" y="120" as="sourcePoint"/>
                        <mxPoint x="1010" y="221.48000000000002" as="targetPoint"/>
                    </mxGeometry>
                </mxCell>
                <mxCell id="F13kggWCqsYXxIl8s9uE-96" value="Check_In_Time" style="ellipse;whiteSpace=wrap;html=1;align=center;" parent="1" vertex="1">
                    <mxGeometry x="910" y="270" width="100" height="40" as="geometry"/>
                </mxCell>
                <mxCell id="F13kggWCqsYXxIl8s9uE-97" value="" style="endArrow=none;html=1;rounded=0;entryX=0.42;entryY=-0.037;entryDx=0;entryDy=0;entryPerimeter=0;" parent="1" target="F13kggWCqsYXxIl8s9uE-96" edge="1">
                    <mxGeometry width="50" height="50" relative="1" as="geometry">
                        <mxPoint x="860" y="120" as="sourcePoint"/>
                        <mxPoint x="930" y="281.48" as="targetPoint"/>
                    </mxGeometry>
                </mxCell>
                <mxCell id="F13kggWCqsYXxIl8s9uE-99" value="Date" style="ellipse;whiteSpace=wrap;html=1;align=center;" parent="1" vertex="1">
                    <mxGeometry x="-270" y="-190" width="100" height="40" as="geometry"/>
                </mxCell>
                <mxCell id="F13kggWCqsYXxIl8s9uE-100" value="" style="endArrow=none;html=1;rounded=0;exitX=1;exitY=0.5;exitDx=0;exitDy=0;entryX=0.5;entryY=0;entryDx=0;entryDy=0;" parent="1" source="F13kggWCqsYXxIl8s9uE-99" target="1UJyBjq5cVFDZRbIYlk_-8" edge="1">
                    <mxGeometry width="50" height="50" relative="1" as="geometry">
                        <mxPoint x="200" y="-320" as="sourcePoint"/>
                        <mxPoint x="70" y="-280" as="targetPoint"/>
                    </mxGeometry>
                </mxCell>
                <mxCell id="F13kggWCqsYXxIl8s9uE-101" value="Amount" style="ellipse;whiteSpace=wrap;html=1;align=center;direction=west;" parent="1" vertex="1">
                    <mxGeometry x="-280" y="-230" width="100" height="40" as="geometry"/>
                </mxCell>
                <mxCell id="F13kggWCqsYXxIl8s9uE-102" value="" style="endArrow=none;html=1;rounded=0;exitX=0;exitY=0.5;exitDx=0;exitDy=0;entryX=0.5;entryY=0;entryDx=0;entryDy=0;" parent="1" source="F13kggWCqsYXxIl8s9uE-101" target="1UJyBjq5cVFDZRbIYlk_-8" edge="1">
                    <mxGeometry width="50" height="50" relative="1" as="geometry">
                        <mxPoint x="210" y="-310" as="sourcePoint"/>
                        <mxPoint x="70" y="-280" as="targetPoint"/>
                    </mxGeometry>
                </mxCell>
                <mxCell id="F13kggWCqsYXxIl8s9uE-103" value="Payment_ID" style="ellipse;whiteSpace=wrap;html=1;align=center;fontStyle=4" parent="1" vertex="1">
                    <mxGeometry x="-257.5" y="-150" width="100" height="40" as="geometry"/>
                </mxCell>
                <mxCell id="F13kggWCqsYXxIl8s9uE-104" value="" style="endArrow=none;html=1;rounded=0;exitX=1;exitY=0.5;exitDx=0;exitDy=0;entryX=0.5;entryY=0;entryDx=0;entryDy=0;" parent="1" source="F13kggWCqsYXxIl8s9uE-103" target="1UJyBjq5cVFDZRbIYlk_-8" edge="1">
                    <mxGeometry width="50" height="50" relative="1" as="geometry">
                        <mxPoint x="210" y="-240" as="sourcePoint"/>
                        <mxPoint x="70" y="-280" as="targetPoint"/>
                    </mxGeometry>
                </mxCell>
                <mxCell id="F13kggWCqsYXxIl8s9uE-107" value="Payment_Method" style="ellipse;whiteSpace=wrap;html=1;align=center;direction=west;" parent="1" vertex="1">
                    <mxGeometry x="-295" y="-290" width="130" height="60" as="geometry"/>
                </mxCell>
                <mxCell id="F13kggWCqsYXxIl8s9uE-108" value="" style="endArrow=none;html=1;rounded=0;exitX=0;exitY=0;exitDx=0;exitDy=0;entryX=0.5;entryY=0;entryDx=0;entryDy=0;" parent="1" source="F13kggWCqsYXxIl8s9uE-107" target="1UJyBjq5cVFDZRbIYlk_-8" edge="1">
                    <mxGeometry width="50" height="50" relative="1" as="geometry">
                        <mxPoint x="310" y="-350" as="sourcePoint"/>
                        <mxPoint x="-22.5" y="-130" as="targetPoint"/>
                    </mxGeometry>
                </mxCell>
                <mxCell id="F13kggWCqsYXxIl8s9uE-109" value="Duration" style="ellipse;whiteSpace=wrap;html=1;align=center;direction=west;" parent="1" vertex="1">
                    <mxGeometry x="830" y="-180" width="130" height="60" as="geometry"/>
                </mxCell>
                <mxCell id="F13kggWCqsYXxIl8s9uE-110" value="" style="endArrow=none;html=1;rounded=0;exitX=1;exitY=0.5;exitDx=0;exitDy=0;entryX=1;entryY=0.5;entryDx=0;entryDy=0;" parent="1" source="F13kggWCqsYXxIl8s9uE-109" target="1UJyBjq5cVFDZRbIYlk_-11" edge="1">
                    <mxGeometry width="50" height="50" relative="1" as="geometry">
                        <mxPoint x="1062.5" y="-270" as="sourcePoint"/>
                        <mxPoint x="710" y="-40" as="targetPoint"/>
                    </mxGeometry>
                </mxCell>
                <mxCell id="F13kggWCqsYXxIl8s9uE-111" value="MembershipType_ID" style="ellipse;whiteSpace=wrap;html=1;align=center;direction=west;fontStyle=4" parent="1" vertex="1">
                    <mxGeometry x="830" y="-240" width="130" height="60" as="geometry"/>
                </mxCell>
                <mxCell id="F13kggWCqsYXxIl8s9uE-112" value="" style="endArrow=none;html=1;rounded=0;entryX=1;entryY=0.5;entryDx=0;entryDy=0;exitX=1;exitY=0.5;exitDx=0;exitDy=0;" parent="1" source="F13kggWCqsYXxIl8s9uE-111" target="1UJyBjq5cVFDZRbIYlk_-11" edge="1">
                    <mxGeometry width="50" height="50" relative="1" as="geometry">
                        <mxPoint x="977.5" y="-350" as="sourcePoint"/>
                        <mxPoint x="625" y="-120" as="targetPoint"/>
                    </mxGeometry>
                </mxCell>
                <mxCell id="F13kggWCqsYXxIl8s9uE-115" value="Cost" style="ellipse;whiteSpace=wrap;html=1;align=center;direction=west;" parent="1" vertex="1">
                    <mxGeometry x="840" y="-120" width="130" height="60" as="geometry"/>
                </mxCell>
                <mxCell id="F13kggWCqsYXxIl8s9uE-116" value="" style="endArrow=none;html=1;rounded=0;exitX=1;exitY=0.5;exitDx=0;exitDy=0;entryX=1;entryY=0.5;entryDx=0;entryDy=0;" parent="1" source="F13kggWCqsYXxIl8s9uE-115" target="1UJyBjq5cVFDZRbIYlk_-11" edge="1">
                    <mxGeometry width="50" height="50" relative="1" as="geometry">
                        <mxPoint x="1067.5" y="-200" as="sourcePoint"/>
                        <mxPoint x="715" y="30" as="targetPoint"/>
                    </mxGeometry>
                </mxCell>
                <mxCell id="F13kggWCqsYXxIl8s9uE-117" value="Address" style="ellipse;whiteSpace=wrap;html=1;align=center;direction=west;" parent="1" vertex="1">
                    <mxGeometry x="370" y="-120" width="130" height="60" as="geometry"/>
                </mxCell>
                <mxCell id="F13kggWCqsYXxIl8s9uE-118" value="" style="endArrow=none;html=1;rounded=0;exitX=1;exitY=0.5;exitDx=0;exitDy=0;entryX=0.5;entryY=0;entryDx=0;entryDy=0;" parent="1" source="F13kggWCqsYXxIl8s9uE-117" target="1UJyBjq5cVFDZRbIYlk_-6" edge="1">
                    <mxGeometry width="50" height="50" relative="1" as="geometry">
                        <mxPoint x="682.5" y="-230" as="sourcePoint"/>
                        <mxPoint x="350" y="50" as="targetPoint"/>
                    </mxGeometry>
                </mxCell>
                <mxCell id="F13kggWCqsYXxIl8s9uE-119" value="Member_ID" style="ellipse;whiteSpace=wrap;html=1;align=center;direction=west;fontStyle=4" parent="1" vertex="1">
                    <mxGeometry x="380" y="-180" width="130" height="60" as="geometry"/>
                </mxCell>
                <mxCell id="F13kggWCqsYXxIl8s9uE-120" value="" style="endArrow=none;html=1;rounded=0;exitX=1;exitY=0.5;exitDx=0;exitDy=0;entryX=0.5;entryY=0;entryDx=0;entryDy=0;" parent="1" source="F13kggWCqsYXxIl8s9uE-119" target="1UJyBjq5cVFDZRbIYlk_-6" edge="1">
                    <mxGeometry width="50" height="50" relative="1" as="geometry">
                        <mxPoint x="642.5" y="-260" as="sourcePoint"/>
                        <mxPoint x="390" y="-10" as="targetPoint"/>
                    </mxGeometry>
                </mxCell>
                <mxCell id="F13kggWCqsYXxIl8s9uE-121" value="Phone" style="ellipse;whiteSpace=wrap;html=1;align=center;direction=west;" parent="1" vertex="1">
                    <mxGeometry x="370" y="-50" width="130" height="60" as="geometry"/>
                </mxCell>
                <mxCell id="F13kggWCqsYXxIl8s9uE-122" value="" style="endArrow=none;html=1;rounded=0;exitX=1;exitY=0.5;exitDx=0;exitDy=0;entryX=0.5;entryY=0;entryDx=0;entryDy=0;" parent="1" source="F13kggWCqsYXxIl8s9uE-121" target="1UJyBjq5cVFDZRbIYlk_-6" edge="1">
                    <mxGeometry width="50" height="50" relative="1" as="geometry">
                        <mxPoint x="687.5" y="-160" as="sourcePoint"/>
                        <mxPoint x="360" y="100" as="targetPoint"/>
                    </mxGeometry>
                </mxCell>
                <mxCell id="F13kggWCqsYXxIl8s9uE-123" value="Date_Of_Joining" style="ellipse;whiteSpace=wrap;html=1;align=center;direction=east;" parent="1" vertex="1">
                    <mxGeometry x="240" y="-130" width="130" height="60" as="geometry"/>
                </mxCell>
                <mxCell id="F13kggWCqsYXxIl8s9uE-124" value="" style="endArrow=none;html=1;rounded=0;exitX=1;exitY=0.5;exitDx=0;exitDy=0;entryX=0.5;entryY=0;entryDx=0;entryDy=0;" parent="1" source="F13kggWCqsYXxIl8s9uE-123" target="1UJyBjq5cVFDZRbIYlk_-6" edge="1">
                    <mxGeometry width="50" height="50" relative="1" as="geometry">
                        <mxPoint x="462.5" y="-225" as="sourcePoint"/>
                        <mxPoint x="170" y="-5" as="targetPoint"/>
                    </mxGeometry>
                </mxCell>
                <mxCell id="F13kggWCqsYXxIl8s9uE-125" value="Name" style="ellipse;whiteSpace=wrap;html=1;align=center;direction=east;" parent="1" vertex="1">
                    <mxGeometry x="250" y="-190" width="130" height="60" as="geometry"/>
                </mxCell>
                <mxCell id="F13kggWCqsYXxIl8s9uE-126" value="" style="endArrow=none;html=1;rounded=0;exitX=1;exitY=0.5;exitDx=0;exitDy=0;entryX=0.5;entryY=0;entryDx=0;entryDy=0;" parent="1" source="F13kggWCqsYXxIl8s9uE-125" target="1UJyBjq5cVFDZRbIYlk_-6" edge="1">
                    <mxGeometry width="50" height="50" relative="1" as="geometry">
                        <mxPoint x="422.5" y="-255" as="sourcePoint"/>
                        <mxPoint x="170" y="-5" as="targetPoint"/>
                    </mxGeometry>
                </mxCell>
                <mxCell id="F13kggWCqsYXxIl8s9uE-127" value="Email" style="ellipse;whiteSpace=wrap;html=1;align=center;direction=east;" parent="1" vertex="1">
                    <mxGeometry x="240" y="-60" width="130" height="60" as="geometry"/>
                </mxCell>
                <mxCell id="F13kggWCqsYXxIl8s9uE-128" value="" style="endArrow=none;html=1;rounded=0;exitX=1;exitY=0.5;exitDx=0;exitDy=0;entryX=0.5;entryY=0;entryDx=0;entryDy=0;" parent="1" source="F13kggWCqsYXxIl8s9uE-127" target="1UJyBjq5cVFDZRbIYlk_-6" edge="1">
                    <mxGeometry width="50" height="50" relative="1" as="geometry">
                        <mxPoint x="467.5" y="-155" as="sourcePoint"/>
                        <mxPoint x="170" y="-5" as="targetPoint"/>
                    </mxGeometry>
                </mxCell>
                <mxCell id="F13kggWCqsYXxIl8s9uE-129" value="Membership_Type_ID" style="ellipse;whiteSpace=wrap;html=1;align=center;direction=west;fontStyle=4" parent="1" vertex="1">
                    <mxGeometry x="430" y="20" width="150" height="70" as="geometry"/>
                </mxCell>
                <mxCell id="F13kggWCqsYXxIl8s9uE-130" value="" style="endArrow=none;html=1;rounded=0;exitX=0;exitY=0.5;exitDx=0;exitDy=0;entryX=0;entryY=0.5;entryDx=0;entryDy=0;" parent="1" source="F13kggWCqsYXxIl8s9uE-129" target="v6D-0U67AB6QKfAhoeiV-9" edge="1">
                    <mxGeometry width="50" height="50" relative="1" as="geometry">
                        <mxPoint x="672.5" y="-110" as="sourcePoint"/>
                        <mxPoint x="360" y="100" as="targetPoint"/>
                    </mxGeometry>
                </mxCell>
                <mxCell id="a_a00b4-tUk0evwlxTbd-1" value="Admin_ID" style="ellipse;whiteSpace=wrap;html=1;align=center;fontStyle=4" parent="1" vertex="1">
                    <mxGeometry x="-680" y="80" width="100" height="40" as="geometry"/>
                </mxCell>
                <mxCell id="a_a00b4-tUk0evwlxTbd-5" value="Equipment_ID" style="ellipse;whiteSpace=wrap;html=1;align=center;fontStyle=4" parent="1" vertex="1">
                    <mxGeometry x="-690" y="20" width="100" height="40" as="geometry"/>
                </mxCell>
                <mxCell id="a_a00b4-tUk0evwlxTbd-6" value="" style="endArrow=none;html=1;rounded=0;exitX=1;exitY=0.5;exitDx=0;exitDy=0;entryX=0;entryY=0.5;entryDx=0;entryDy=0;" parent="1" source="a_a00b4-tUk0evwlxTbd-5" target="v6D-0U67AB6QKfAhoeiV-68" edge="1">
                    <mxGeometry width="50" height="50" relative="1" as="geometry">
                        <mxPoint x="-345" y="5" as="sourcePoint"/>
                        <mxPoint x="-500" y="54" as="targetPoint"/>
                    </mxGeometry>
                </mxCell>
                <mxCell id="a_a00b4-tUk0evwlxTbd-7" value="Member_ID" style="ellipse;whiteSpace=wrap;html=1;align=center;fontStyle=4" parent="1" vertex="1">
                    <mxGeometry x="-7.105427357601002e-15" y="90" width="100" height="40" as="geometry"/>
                </mxCell>
                <mxCell id="a_a00b4-tUk0evwlxTbd-8" value="" style="endArrow=none;html=1;rounded=0;exitX=1;exitY=0.5;exitDx=0;exitDy=0;entryX=1;entryY=0.5;entryDx=0;entryDy=0;" parent="1" source="a_a00b4-tUk0evwlxTbd-7" target="v6D-0U67AB6QKfAhoeiV-19" edge="1">
                    <mxGeometry width="50" height="50" relative="1" as="geometry">
                        <mxPoint x="379.82" y="120" as="sourcePoint"/>
                        <mxPoint x="230.1789838486223" y="450" as="targetPoint"/>
                    </mxGeometry>
                </mxCell>
                <mxCell id="a_a00b4-tUk0evwlxTbd-9" value="Payment_ID" style="ellipse;whiteSpace=wrap;html=1;align=center;fontStyle=4" parent="1" vertex="1">
                    <mxGeometry x="-20" y="10" width="100" height="40" as="geometry"/>
                </mxCell>
                <mxCell id="a_a00b4-tUk0evwlxTbd-10" value="" style="endArrow=none;html=1;rounded=0;exitX=1;exitY=0.5;exitDx=0;exitDy=0;entryX=1;entryY=0.5;entryDx=0;entryDy=0;" parent="1" source="a_a00b4-tUk0evwlxTbd-9" target="v6D-0U67AB6QKfAhoeiV-19" edge="1">
                    <mxGeometry width="50" height="50" relative="1" as="geometry">
                        <mxPoint x="336" y="-40" as="sourcePoint"/>
                        <mxPoint x="84" y="80" as="targetPoint"/>
                    </mxGeometry>
                </mxCell>
                <mxCell id="a_a00b4-tUk0evwlxTbd-11" value="&lt;u&gt;Member_ID&lt;/u&gt;" style="ellipse;whiteSpace=wrap;html=1;align=center;" parent="1" vertex="1">
                    <mxGeometry x="-165" y="270" width="100" height="40" as="geometry"/>
                </mxCell>
                <mxCell id="a_a00b4-tUk0evwlxTbd-12" value="" style="endArrow=none;html=1;rounded=0;exitX=1;exitY=0.5;exitDx=0;exitDy=0;entryX=0.5;entryY=1;entryDx=0;entryDy=0;" parent="1" source="a_a00b4-tUk0evwlxTbd-11" target="v6D-0U67AB6QKfAhoeiV-71" edge="1">
                    <mxGeometry width="50" height="50" relative="1" as="geometry">
                        <mxPoint x="130" y="420" as="sourcePoint"/>
                        <mxPoint y="410" as="targetPoint"/>
                    </mxGeometry>
                </mxCell>
                <mxCell id="a_a00b4-tUk0evwlxTbd-13" value="Trainer_ID" style="ellipse;whiteSpace=wrap;html=1;align=center;fontStyle=4" parent="1" vertex="1">
                    <mxGeometry x="-192.5" y="350" width="100" height="40" as="geometry"/>
                </mxCell>
                <mxCell id="a_a00b4-tUk0evwlxTbd-14" value="" style="endArrow=none;html=1;rounded=0;exitX=1;exitY=0.5;exitDx=0;exitDy=0;entryX=0.5;entryY=1;entryDx=0;entryDy=0;" parent="1" source="a_a00b4-tUk0evwlxTbd-13" target="v6D-0U67AB6QKfAhoeiV-71" edge="1">
                    <mxGeometry width="50" height="50" relative="1" as="geometry">
                        <mxPoint x="130" y="553.52" as="sourcePoint"/>
                        <mxPoint x="-10" y="573.52" as="targetPoint"/>
                    </mxGeometry>
                </mxCell>
                <mxCell id="a_a00b4-tUk0evwlxTbd-15" value="Trainer_ID" style="ellipse;whiteSpace=wrap;html=1;align=center;fontStyle=4" parent="1" vertex="1">
                    <mxGeometry x="-130" y="780" width="100" height="40" as="geometry"/>
                </mxCell>
                <mxCell id="a_a00b4-tUk0evwlxTbd-16" value="" style="endArrow=none;html=1;rounded=0;exitX=0;exitY=0.5;exitDx=0;exitDy=0;entryX=1;entryY=0.5;entryDx=0;entryDy=0;" parent="1" source="a_a00b4-tUk0evwlxTbd-15" target="v6D-0U67AB6QKfAhoeiV-18" edge="1">
                    <mxGeometry width="50" height="50" relative="1" as="geometry">
                        <mxPoint x="190" y="830" as="sourcePoint"/>
                        <mxPoint x="50" y="850" as="targetPoint"/>
                    </mxGeometry>
                </mxCell>
                <mxCell id="a_a00b4-tUk0evwlxTbd-18" value="Schedule_ID" style="ellipse;whiteSpace=wrap;html=1;align=center;fontStyle=4" parent="1" vertex="1">
                    <mxGeometry x="-130" y="820" width="100" height="40" as="geometry"/>
                </mxCell>
                <mxCell id="a_a00b4-tUk0evwlxTbd-19" value="" style="endArrow=none;html=1;rounded=0;exitX=0;exitY=0.5;exitDx=0;exitDy=0;entryX=1;entryY=0.5;entryDx=0;entryDy=0;" parent="1" source="a_a00b4-tUk0evwlxTbd-18" target="v6D-0U67AB6QKfAhoeiV-18" edge="1">
                    <mxGeometry width="50" height="50" relative="1" as="geometry">
                        <mxPoint x="220" y="850" as="sourcePoint"/>
                        <mxPoint x="80" y="870" as="targetPoint"/>
                    </mxGeometry>
                </mxCell>
                <mxCell id="a_a00b4-tUk0evwlxTbd-21" value="" style="endArrow=none;html=1;rounded=0;exitX=1;exitY=0.5;exitDx=0;exitDy=0;entryX=0;entryY=0.5;entryDx=0;entryDy=0;" parent="1" source="a_a00b4-tUk0evwlxTbd-1" target="v6D-0U67AB6QKfAhoeiV-68" edge="1">
                    <mxGeometry width="50" height="50" relative="1" as="geometry">
                        <mxPoint x="-550" y="115" as="sourcePoint"/>
                        <mxPoint x="-460" y="135" as="targetPoint"/>
                    </mxGeometry>
                </mxCell>
                <mxCell id="a_a00b4-tUk0evwlxTbd-22" value="Payment_ID" style="ellipse;whiteSpace=wrap;html=1;align=center;fontStyle=4" parent="1" vertex="1">
                    <mxGeometry x="-327.5" y="45" width="100" height="40" as="geometry"/>
                </mxCell>
                <mxCell id="a_a00b4-tUk0evwlxTbd-23" value="" style="endArrow=none;html=1;rounded=0;exitX=1;exitY=0.5;exitDx=0;exitDy=0;entryX=0.5;entryY=0;entryDx=0;entryDy=0;" parent="1" source="a_a00b4-tUk0evwlxTbd-22" target="v6D-0U67AB6QKfAhoeiV-24" edge="1">
                    <mxGeometry width="50" height="50" relative="1" as="geometry">
                        <mxPoint x="39.5" y="-55" as="sourcePoint"/>
                        <mxPoint x="-212.5" y="65" as="targetPoint"/>
                    </mxGeometry>
                </mxCell>
                <mxCell id="a_a00b4-tUk0evwlxTbd-24" value="Admin_ID" style="ellipse;whiteSpace=wrap;html=1;align=center;fontStyle=4" parent="1" vertex="1">
                    <mxGeometry x="-327.5" y="85.00000000000001" width="100" height="40" as="geometry"/>
                </mxCell>
                <mxCell id="a_a00b4-tUk0evwlxTbd-25" value="" style="endArrow=none;html=1;rounded=0;exitX=1;exitY=0.5;exitDx=0;exitDy=0;entryX=0.5;entryY=0;entryDx=0;entryDy=0;" parent="1" source="a_a00b4-tUk0evwlxTbd-24" target="v6D-0U67AB6QKfAhoeiV-24" edge="1">
                    <mxGeometry width="50" height="50" relative="1" as="geometry">
                        <mxPoint x="37.5" y="93.52000000000001" as="sourcePoint"/>
                        <mxPoint x="-72.5" y="233.52" as="targetPoint"/>
                    </mxGeometry>
                </mxCell>
                <mxCell id="a_a00b4-tUk0evwlxTbd-26" value="Reciever_account" style="ellipse;whiteSpace=wrap;html=1;align=center;direction=west;" parent="1" vertex="1">
                    <mxGeometry x="-295" y="-350" width="130" height="60" as="geometry"/>
                </mxCell>
                <mxCell id="a_a00b4-tUk0evwlxTbd-27" value="" style="endArrow=none;html=1;rounded=0;exitX=0;exitY=0;exitDx=0;exitDy=0;entryX=0.5;entryY=0;entryDx=0;entryDy=0;" parent="1" source="a_a00b4-tUk0evwlxTbd-26" target="1UJyBjq5cVFDZRbIYlk_-8" edge="1">
                    <mxGeometry width="50" height="50" relative="1" as="geometry">
                        <mxPoint x="320" y="-340" as="sourcePoint"/>
                        <mxPoint x="-40" y="-130" as="targetPoint"/>
                    </mxGeometry>
                </mxCell>
                <mxCell id="a_a00b4-tUk0evwlxTbd-28" value="Payment_Direction" style="ellipse;whiteSpace=wrap;html=1;align=center;direction=west;" parent="1" vertex="1">
                    <mxGeometry x="-70" y="-310" width="130" height="60" as="geometry"/>
                </mxCell>
                <mxCell id="a_a00b4-tUk0evwlxTbd-29" value="" style="endArrow=none;html=1;rounded=0;exitX=0.5;exitY=0;exitDx=0;exitDy=0;" parent="1" source="a_a00b4-tUk0evwlxTbd-28" edge="1">
                    <mxGeometry width="50" height="50" relative="1" as="geometry">
                        <mxPoint x="330" y="-330" as="sourcePoint"/>
                        <mxPoint x="-40" y="-120" as="targetPoint"/>
                    </mxGeometry>
                </mxCell>
                <mxCell id="a_a00b4-tUk0evwlxTbd-30" value="Sender_Account" style="ellipse;whiteSpace=wrap;html=1;align=center;direction=west;" parent="1" vertex="1">
                    <mxGeometry x="-165" y="-350" width="130" height="60" as="geometry"/>
                </mxCell>
                <mxCell id="a_a00b4-tUk0evwlxTbd-31" value="" style="endArrow=none;html=1;rounded=0;exitX=0.5;exitY=0;exitDx=0;exitDy=0;entryX=0.5;entryY=0;entryDx=0;entryDy=0;" parent="1" source="a_a00b4-tUk0evwlxTbd-30" target="1UJyBjq5cVFDZRbIYlk_-8" edge="1">
                    <mxGeometry width="50" height="50" relative="1" as="geometry">
                        <mxPoint x="500" y="-360" as="sourcePoint"/>
                        <mxPoint x="148" y="-130" as="targetPoint"/>
                    </mxGeometry>
                </mxCell>
                <mxCell id="a_a00b4-tUk0evwlxTbd-32" value="F_Name" style="ellipse;whiteSpace=wrap;html=1;align=center;direction=east;" parent="1" vertex="1">
                    <mxGeometry x="225" y="-300" width="130" height="60" as="geometry"/>
                </mxCell>
                <mxCell id="a_a00b4-tUk0evwlxTbd-34" value="" style="endArrow=none;html=1;rounded=0;entryX=0.5;entryY=1;entryDx=0;entryDy=0;exitX=0.5;exitY=0;exitDx=0;exitDy=0;" parent="1" source="F13kggWCqsYXxIl8s9uE-125" target="a_a00b4-tUk0evwlxTbd-32" edge="1">
                    <mxGeometry width="50" height="50" relative="1" as="geometry">
                        <mxPoint x="160" y="-80" as="sourcePoint"/>
                        <mxPoint x="210" y="-130" as="targetPoint"/>
                        <Array as="points"/>
                    </mxGeometry>
                </mxCell>
                <mxCell id="a_a00b4-tUk0evwlxTbd-35" value="L_Name" style="ellipse;whiteSpace=wrap;html=1;align=center;direction=east;" parent="1" vertex="1">
                    <mxGeometry x="355" y="-300" width="130" height="60" as="geometry"/>
                </mxCell>
                <mxCell id="a_a00b4-tUk0evwlxTbd-36" value="" style="endArrow=none;html=1;rounded=0;entryX=0.5;entryY=1;entryDx=0;entryDy=0;exitX=0.5;exitY=0;exitDx=0;exitDy=0;" parent="1" source="F13kggWCqsYXxIl8s9uE-125" target="a_a00b4-tUk0evwlxTbd-35" edge="1">
                    <mxGeometry width="50" height="50" relative="1" as="geometry">
                        <mxPoint x="340" y="-250" as="sourcePoint"/>
                        <mxPoint x="220" y="-120" as="targetPoint"/>
                        <Array as="points"/>
                    </mxGeometry>
                </mxCell>
                <mxCell id="a_a00b4-tUk0evwlxTbd-40" value="Member_ID" style="ellipse;whiteSpace=wrap;html=1;align=center;direction=west;fontStyle=4" parent="1" vertex="1">
                    <mxGeometry x="735" y="30" width="130" height="60" as="geometry"/>
                </mxCell>
                <mxCell id="a_a00b4-tUk0evwlxTbd-41" value="" style="endArrow=none;html=1;rounded=0;exitX=1;exitY=0.5;exitDx=0;exitDy=0;entryX=1;entryY=0.5;entryDx=0;entryDy=0;" parent="1" source="a_a00b4-tUk0evwlxTbd-40" target="v6D-0U67AB6QKfAhoeiV-9" edge="1">
                    <mxGeometry width="50" height="50" relative="1" as="geometry">
                        <mxPoint x="970" y="30" as="sourcePoint"/>
                        <mxPoint x="687.5" y="390" as="targetPoint"/>
                    </mxGeometry>
                </mxCell>
                <mxCell id="a_a00b4-tUk0evwlxTbd-42" value="Member_ID" style="ellipse;whiteSpace=wrap;html=1;align=center;fontStyle=4" parent="1" vertex="1">
                    <mxGeometry x="750" y="240" width="100" height="40" as="geometry"/>
                </mxCell>
                <mxCell id="a_a00b4-tUk0evwlxTbd-43" value="" style="endArrow=none;html=1;rounded=0;entryX=0;entryY=0.5;entryDx=0;entryDy=0;exitX=1;exitY=0.5;exitDx=0;exitDy=0;" parent="1" source="v6D-0U67AB6QKfAhoeiV-21" target="a_a00b4-tUk0evwlxTbd-42" edge="1">
                    <mxGeometry width="50" height="50" relative="1" as="geometry">
                        <mxPoint x="492.5" y="390" as="sourcePoint"/>
                        <mxPoint x="852.5" y="260" as="targetPoint"/>
                    </mxGeometry>
                </mxCell>
                <mxCell id="a_a00b4-tUk0evwlxTbd-44" value="Attendance_ID" style="ellipse;whiteSpace=wrap;html=1;align=center;fontStyle=4" parent="1" vertex="1">
                    <mxGeometry x="755" y="190" width="100" height="40" as="geometry"/>
                </mxCell>
                <mxCell id="a_a00b4-tUk0evwlxTbd-45" value="" style="endArrow=none;html=1;rounded=0;entryX=0.42;entryY=-0.037;entryDx=0;entryDy=0;entryPerimeter=0;exitX=1;exitY=0.5;exitDx=0;exitDy=0;" parent="1" source="v6D-0U67AB6QKfAhoeiV-21" target="a_a00b4-tUk0evwlxTbd-44" edge="1">
                    <mxGeometry width="50" height="50" relative="1" as="geometry">
                        <mxPoint x="560" y="310" as="sourcePoint"/>
                        <mxPoint x="680" y="381.48" as="targetPoint"/>
                    </mxGeometry>
                </mxCell>
                <mxCell id="a_a00b4-tUk0evwlxTbd-46" value="WorkoutPlan_ID" style="ellipse;whiteSpace=wrap;html=1;align=center;fontStyle=4" parent="1" vertex="1">
                    <mxGeometry x="540" y="260" width="100" height="40" as="geometry"/>
                </mxCell>
                <mxCell id="a_a00b4-tUk0evwlxTbd-47" value="" style="endArrow=none;html=1;rounded=0;exitX=0.5;exitY=0;exitDx=0;exitDy=0;entryX=0;entryY=0.5;entryDx=0;entryDy=0;" parent="1" source="v6D-0U67AB6QKfAhoeiV-20" target="a_a00b4-tUk0evwlxTbd-46" edge="1">
                    <mxGeometry width="50" height="50" relative="1" as="geometry">
                        <mxPoint x="605" y="371.48" as="sourcePoint"/>
                        <mxPoint x="815" y="321.48" as="targetPoint"/>
                    </mxGeometry>
                </mxCell>
                <mxCell id="a_a00b4-tUk0evwlxTbd-48" value="Member_ID" style="ellipse;whiteSpace=wrap;html=1;align=center;direction=west;fontStyle=4" parent="1" vertex="1">
                    <mxGeometry x="585" y="340" width="130" height="60" as="geometry"/>
                </mxCell>
                <mxCell id="a_a00b4-tUk0evwlxTbd-49" value="" style="endArrow=none;html=1;rounded=0;exitX=1;exitY=0.5;exitDx=0;exitDy=0;entryX=0.5;entryY=0;entryDx=0;entryDy=0;" parent="1" source="a_a00b4-tUk0evwlxTbd-48" target="v6D-0U67AB6QKfAhoeiV-20" edge="1">
                    <mxGeometry width="50" height="50" relative="1" as="geometry">
                        <mxPoint x="880" y="410" as="sourcePoint"/>
                        <mxPoint x="597.5" y="770" as="targetPoint"/>
                    </mxGeometry>
                </mxCell>
                <mxCell id="a_a00b4-tUk0evwlxTbd-50" value="Workout_ID" style="ellipse;whiteSpace=wrap;html=1;align=center;fontStyle=4" parent="1" vertex="1">
                    <mxGeometry x="1040" y="680" width="100" height="40" as="geometry"/>
                </mxCell>
                <mxCell id="a_a00b4-tUk0evwlxTbd-51" value="" style="endArrow=none;html=1;rounded=0;exitX=1;exitY=0.5;exitDx=0;exitDy=0;entryX=0;entryY=0.5;entryDx=0;entryDy=0;" parent="1" source="v6D-0U67AB6QKfAhoeiV-22" target="a_a00b4-tUk0evwlxTbd-50" edge="1">
                    <mxGeometry width="50" height="50" relative="1" as="geometry">
                        <mxPoint x="890" y="690" as="sourcePoint"/>
                        <mxPoint x="1030" y="700" as="targetPoint"/>
                    </mxGeometry>
                </mxCell>
                <mxCell id="a_a00b4-tUk0evwlxTbd-52" value="WorkoutPlan_ID" style="ellipse;whiteSpace=wrap;html=1;align=center;fontStyle=4" parent="1" vertex="1">
                    <mxGeometry x="990" y="750" width="100" height="40" as="geometry"/>
                </mxCell>
                <mxCell id="a_a00b4-tUk0evwlxTbd-53" value="" style="endArrow=none;html=1;rounded=0;entryX=0;entryY=0.5;entryDx=0;entryDy=0;" parent="1" target="a_a00b4-tUk0evwlxTbd-52" edge="1">
                    <mxGeometry width="50" height="50" relative="1" as="geometry">
                        <mxPoint x="840" y="680" as="sourcePoint"/>
                        <mxPoint x="1040" y="701.48" as="targetPoint"/>
                    </mxGeometry>
                </mxCell>
                <mxCell id="a_a00b4-tUk0evwlxTbd-54" value="WorkoutPlan_ID" style="ellipse;whiteSpace=wrap;html=1;align=center;fontStyle=4" parent="1" vertex="1">
                    <mxGeometry x="580" y="820" width="100" height="40" as="geometry"/>
                </mxCell>
                <mxCell id="a_a00b4-tUk0evwlxTbd-55" value="" style="endArrow=none;html=1;rounded=0;exitX=0.55;exitY=0.058;exitDx=0;exitDy=0;entryX=0;entryY=0.5;entryDx=0;entryDy=0;exitPerimeter=0;" parent="1" source="v6D-0U67AB6QKfAhoeiV-76" target="a_a00b4-tUk0evwlxTbd-54" edge="1">
                    <mxGeometry width="50" height="50" relative="1" as="geometry">
                        <mxPoint x="482.5" y="811.48" as="sourcePoint"/>
                        <mxPoint x="692.5" y="761.48" as="targetPoint"/>
                    </mxGeometry>
                </mxCell>
                <mxCell id="a_a00b4-tUk0evwlxTbd-56" value="Name" style="ellipse;whiteSpace=wrap;html=1;align=center;fontStyle=0" parent="1" vertex="1">
                    <mxGeometry x="820" y="510" width="100" height="40" as="geometry"/>
                </mxCell>
                <mxCell id="a_a00b4-tUk0evwlxTbd-57" value="" style="endArrow=none;html=1;rounded=0;exitX=1;exitY=0.5;exitDx=0;exitDy=0;entryX=0;entryY=0.5;entryDx=0;entryDy=0;" parent="1" source="1UJyBjq5cVFDZRbIYlk_-9" target="a_a00b4-tUk0evwlxTbd-56" edge="1">
                    <mxGeometry width="50" height="50" relative="1" as="geometry">
                        <mxPoint x="860" y="490" as="sourcePoint"/>
                        <mxPoint x="990" y="489" as="targetPoint"/>
                        <Array as="points"/>
                    </mxGeometry>
                </mxCell>
                <mxCell id="a_a00b4-tUk0evwlxTbd-58" value="Is_Active" style="ellipse;whiteSpace=wrap;html=1;align=center;fontStyle=0" parent="1" vertex="1">
                    <mxGeometry x="715" y="390" width="100" height="40" as="geometry"/>
                </mxCell>
                <mxCell id="a_a00b4-tUk0evwlxTbd-59" value="" style="endArrow=none;html=1;rounded=0;entryX=0;entryY=0.5;entryDx=0;entryDy=0;exitX=1;exitY=0.5;exitDx=0;exitDy=0;" parent="1" source="1UJyBjq5cVFDZRbIYlk_-9" target="a_a00b4-tUk0evwlxTbd-58" edge="1">
                    <mxGeometry width="50" height="50" relative="1" as="geometry">
                        <mxPoint x="850" y="480" as="sourcePoint"/>
                        <mxPoint x="1110" y="341.48" as="targetPoint"/>
                        <Array as="points"/>
                    </mxGeometry>
                </mxCell>
                <mxCell id="a_a00b4-tUk0evwlxTbd-73" value="&lt;font color=&quot;#0d0d0d&quot;&gt;Maintenance&lt;/font&gt;" style="rhombus;whiteSpace=wrap;html=1;fillColor=#dae8fc;strokeColor=#6c8ebf;" parent="1" vertex="1">
                    <mxGeometry x="-540" y="-350" width="80" height="80" as="geometry"/>
                </mxCell>
                <mxCell id="a_a00b4-tUk0evwlxTbd-74" value="" style="endArrow=none;html=1;rounded=0;entryX=0.5;entryY=1;entryDx=0;entryDy=0;exitX=0.5;exitY=0;exitDx=0;exitDy=0;" parent="1" source="1UJyBjq5cVFDZRbIYlk_-13" target="a_a00b4-tUk0evwlxTbd-73" edge="1">
                    <mxGeometry width="50" height="50" relative="1" as="geometry">
                        <mxPoint x="-500" y="-170" as="sourcePoint"/>
                        <mxPoint x="-450" y="-220" as="targetPoint"/>
                    </mxGeometry>
                </mxCell>
                <mxCell id="a_a00b4-tUk0evwlxTbd-75" value="Equipment ID" style="ellipse;whiteSpace=wrap;html=1;align=center;fontStyle=4" parent="1" vertex="1">
                    <mxGeometry x="-740" y="-400" width="100" height="40" as="geometry"/>
                </mxCell>
                <mxCell id="a_a00b4-tUk0evwlxTbd-76" value="" style="endArrow=none;html=1;rounded=0;exitX=1;exitY=0.5;exitDx=0;exitDy=0;entryX=0.5;entryY=0;entryDx=0;entryDy=0;" parent="1" source="a_a00b4-tUk0evwlxTbd-75" target="a_a00b4-tUk0evwlxTbd-73" edge="1">
                    <mxGeometry width="50" height="50" relative="1" as="geometry">
                        <mxPoint x="-222.5" y="-390" as="sourcePoint"/>
                        <mxPoint x="-412.5" y="-310" as="targetPoint"/>
                    </mxGeometry>
                </mxCell>
                <mxCell id="a_a00b4-tUk0evwlxTbd-77" value="Next_Date" style="ellipse;whiteSpace=wrap;html=1;align=center;" parent="1" vertex="1">
                    <mxGeometry x="-755" y="-310" width="150" height="50" as="geometry"/>
                </mxCell>
                <mxCell id="a_a00b4-tUk0evwlxTbd-78" value="" style="endArrow=none;html=1;rounded=0;exitX=1;exitY=0.5;exitDx=0;exitDy=0;entryX=0;entryY=0.5;entryDx=0;entryDy=0;" parent="1" source="a_a00b4-tUk0evwlxTbd-77" target="a_a00b4-tUk0evwlxTbd-73" edge="1">
                    <mxGeometry width="50" height="50" relative="1" as="geometry">
                        <mxPoint x="-385" y="-150" as="sourcePoint"/>
                        <mxPoint x="-535" y="-250" as="targetPoint"/>
                    </mxGeometry>
                </mxCell>
                <mxCell id="a_a00b4-tUk0evwlxTbd-79" value="Due" style="ellipse;whiteSpace=wrap;html=1;align=center;" parent="1" vertex="1">
                    <mxGeometry x="-485" y="-410" width="150" height="50" as="geometry"/>
                </mxCell>
                <mxCell id="a_a00b4-tUk0evwlxTbd-80" value="" style="endArrow=none;html=1;rounded=0;exitX=0;exitY=0.5;exitDx=0;exitDy=0;" parent="1" source="a_a00b4-tUk0evwlxTbd-79" edge="1">
                    <mxGeometry width="50" height="50" relative="1" as="geometry">
                        <mxPoint x="-195" y="-275" as="sourcePoint"/>
                        <mxPoint x="-500" y="-350" as="targetPoint"/>
                    </mxGeometry>
                </mxCell>
                <mxCell id="6k0UA5EclrErI8_eiQHA-1" value="Transaction_Status" style="ellipse;whiteSpace=wrap;html=1;align=center;direction=west;" parent="1" vertex="1">
                    <mxGeometry y="-260" width="130" height="60" as="geometry"/>
                </mxCell>
                <mxCell id="6k0UA5EclrErI8_eiQHA-2" value="" style="endArrow=none;html=1;rounded=0;exitX=0.5;exitY=0;exitDx=0;exitDy=0;entryX=0.5;entryY=0;entryDx=0;entryDy=0;" parent="1" source="6k0UA5EclrErI8_eiQHA-1" target="1UJyBjq5cVFDZRbIYlk_-8" edge="1">
                    <mxGeometry width="50" height="50" relative="1" as="geometry">
                        <mxPoint x="340" y="-320" as="sourcePoint"/>
                        <mxPoint x="-30" y="-110" as="targetPoint"/>
                    </mxGeometry>
                </mxCell>
                <mxCell id="6k0UA5EclrErI8_eiQHA-4" value="Date" style="ellipse;whiteSpace=wrap;html=1;align=center;direction=west;fontStyle=0" parent="1" vertex="1">
                    <mxGeometry x="720" y="-30" width="90" height="40" as="geometry"/>
                </mxCell>
                <mxCell id="6k0UA5EclrErI8_eiQHA-5" value="" style="endArrow=none;html=1;rounded=0;exitX=1;exitY=0.5;exitDx=0;exitDy=0;entryX=0.5;entryY=0;entryDx=0;entryDy=0;" parent="1" source="6k0UA5EclrErI8_eiQHA-4" target="v6D-0U67AB6QKfAhoeiV-9" edge="1">
                    <mxGeometry width="50" height="50" relative="1" as="geometry">
                        <mxPoint x="930" y="70" as="sourcePoint"/>
                        <mxPoint x="650" y="110" as="targetPoint"/>
                    </mxGeometry>
                </mxCell>
                <mxCell id="6k0UA5EclrErI8_eiQHA-6" style="edgeStyle=orthogonalEdgeStyle;rounded=0;orthogonalLoop=1;jettySize=auto;html=1;exitX=0.5;exitY=1;exitDx=0;exitDy=0;" parent="1" source="a_a00b4-tUk0evwlxTbd-42" target="a_a00b4-tUk0evwlxTbd-42" edge="1">
                    <mxGeometry relative="1" as="geometry"/>
                </mxCell>
                <mxCell id="LafZTMVqeySTIKX1BS5P-1" style="edgeStyle=orthogonalEdgeStyle;rounded=0;orthogonalLoop=1;jettySize=auto;html=1;exitX=0.5;exitY=1;exitDx=0;exitDy=0;" parent="1" source="F13kggWCqsYXxIl8s9uE-20" target="F13kggWCqsYXxIl8s9uE-20" edge="1">
                    <mxGeometry relative="1" as="geometry"/>
                </mxCell>
                <mxCell id="50jQdWI2V5LUCUH0-d31-1" value="Retry_Count" style="ellipse;whiteSpace=wrap;html=1;align=center;direction=west;" parent="1" vertex="1">
                    <mxGeometry x="80" y="-210" width="130" height="60" as="geometry"/>
                </mxCell>
                <mxCell id="50jQdWI2V5LUCUH0-d31-2" value="" style="endArrow=none;html=1;rounded=0;exitX=0.5;exitY=0;exitDx=0;exitDy=0;entryX=0.5;entryY=0;entryDx=0;entryDy=0;" parent="1" source="50jQdWI2V5LUCUH0-d31-1" target="1UJyBjq5cVFDZRbIYlk_-8" edge="1">
                    <mxGeometry width="50" height="50" relative="1" as="geometry">
                        <mxPoint x="420" y="-270" as="sourcePoint"/>
                        <mxPoint x="38" y="-70" as="targetPoint"/>
                    </mxGeometry>
                </mxCell>
                <mxCell id="FOWq9mMIR1_HlRcHsZ-l-5" value="Is_Leave" style="ellipse;whiteSpace=wrap;html=1;align=center;" parent="1" vertex="1">
                    <mxGeometry x="-240" y="1050" width="100" height="40" as="geometry"/>
                </mxCell>
                <mxCell id="FOWq9mMIR1_HlRcHsZ-l-6" value="" style="endArrow=none;html=1;rounded=0;exitX=0.5;exitY=0;exitDx=0;exitDy=0;entryX=0.5;entryY=1;entryDx=0;entryDy=0;" parent="1" source="FOWq9mMIR1_HlRcHsZ-l-5" target="1UJyBjq5cVFDZRbIYlk_-15" edge="1">
                    <mxGeometry width="50" height="50" relative="1" as="geometry">
                        <mxPoint x="130" y="990" as="sourcePoint"/>
                        <mxPoint x="-40" y="980" as="targetPoint"/>
                    </mxGeometry>
                </mxCell>
            </root>
        </mxGraphModel>
    </diagram>
</mxfile>